<?xml version="1.0" encoding="UTF-8"?>
<svg id="Layer_1" data-name="Layer 1" xmlns="http://www.w3.org/2000/svg" viewBox="0 0 30.04 19.95">
  <defs>
    <style>
      .cls-1 {
        fill: #fff;
      }

      .cls-2 {
        fill: #f481a7;
      }
    </style>
  </defs>
  <path class="cls-2" d="M26.99,12.54c0-.26.06-.52.06-.78C27.05,5.54,21.73.49,15.12.49S3.14,5.54,3.14,11.76v.78c-1.55.39-2.66,1.75-2.66,3.43,0,1.94,1.55,3.5,3.5,3.5.84,0,1.62-.33,2.21-.78.58.52,1.36.78,2.21.78s1.62-.33,2.21-.78c.58.52,1.36.78,2.21.78s1.62-.33,2.21-.78c.58.52,1.36.78,2.21.78s1.62-.33,2.21-.78c.58.52,1.36.78,2.21.78s1.62-.33,2.21-.78c.58.52,1.36.78,2.21.78,1.94,0,3.5-1.55,3.5-3.5.13-1.69-.97-3.05-2.53-3.43h-.03Z"/>
  <path class="cls-1" d="M26.05,19.95c-.85,0-1.61-.23-2.22-.66-.67.43-1.43.66-2.19.66-.85,0-1.61-.23-2.22-.66-.67.43-1.43.66-2.19.66-.85,0-1.61-.23-2.22-.66-.67.43-1.43.66-2.19.66-.85,0-1.61-.23-2.22-.66-.67.43-1.43.66-2.19.66-.85,0-1.61-.23-2.22-.66-.67.43-1.43.66-2.19.66-1.07,0-2.07-.41-2.82-1.16-.75-.75-1.16-1.75-1.16-2.82,0-1.75,1.05-3.23,2.66-3.79v-.42C2.66,5.27,8.25,0,15.12,0c3.32,0,6.44,1.22,8.78,3.44,2.34,2.22,3.64,5.18,3.64,8.32,0,.15-.02.28-.03.42,1.63.57,2.65,2.09,2.52,3.81,0,1.06-.42,2.06-1.16,2.8s-1.75,1.16-2.82,1.16ZM23.86,18.06l.3.27c.48.43,1.13.65,1.88.65,1.69,0,3.01-1.32,3.01-3.01v-.04c.11-1.36-.75-2.55-2.1-2.91h-.45v-.49c0-.16.02-.3.03-.45.01-.12.03-.23.03-.33C26.56,5.81,21.43.97,15.12.97S3.63,5.81,3.63,11.76v1.16l-.37.09c-1.37.34-2.29,1.53-2.29,2.96,0,1.69,1.32,3.01,3.01,3.01.66,0,1.35-.25,1.91-.68l.32-.25.3.27c.48.43,1.13.65,1.88.65.67,0,1.35-.24,1.91-.68l.32-.25.3.27c.48.43,1.13.65,1.88.65.67,0,1.35-.24,1.91-.68l.32-.25.3.27c.48.43,1.13.65,1.88.65.67,0,1.35-.24,1.91-.68l.32-.25.3.27c.48.43,1.13.65,1.88.65.67,0,1.35-.24,1.91-.68l.32-.25Z"/>
</svg>